<svg version="1.1" id="Layer_1" xmlns="http://www.w3.org/2000/svg" xmlns:xlink="http://www.w3.org/1999/xlink" x="0px" y="0px"
	 width="100%" viewBox="0 0 3000 1521" enable-background="new 0 0 3000 1521" xml:space="preserve">
<path fill="#094275" opacity="1.000000" stroke="none" 
	d="
M1994.000000,1524.000000 
	C1329.406616,1524.000000 665.813171,1524.000000 2.109891,1524.000000 
	C2.109891,1016.795959 2.109891,509.591858 2.109891,2.193896 
	C1001.760315,2.193896 2001.520630,2.193896 3001.640625,2.193896 
	C3001.640625,509.333130 3001.640625,1016.666565 3001.640625,1524.000000 
	C2666.258057,1524.000000 2330.628906,1524.000000 1994.000000,1524.000000 
M580.991760,797.515442 
	C582.093567,806.293335 583.195435,815.071228 584.207214,825.580994 
	C584.747009,830.210449 585.725098,834.839172 585.732178,839.469421 
	C585.745544,848.165283 586.533386,856.590027 588.608398,865.146423 
	C590.111633,871.345154 589.352173,878.292236 588.579956,884.784058 
	C587.882385,890.649353 585.798767,896.349731 583.517273,903.353149 
	C581.743103,909.591492 579.968933,915.829773 577.638367,923.566956 
	C577.533508,925.689270 577.428711,927.811646 576.605469,931.041321 
	C575.765259,934.028687 574.925049,937.016113 573.582581,940.889099 
	C573.471924,941.549866 573.361267,942.210693 572.470337,944.160461 
	C570.690857,950.113159 569.846619,956.696960 561.286133,957.110535 
	C560.239197,957.161194 558.707581,960.784607 558.685913,962.766296 
	C558.674988,963.771240 561.414307,965.290649 563.122925,965.709045 
	C565.333496,966.250427 567.756470,965.963196 570.088074,965.966003 
	C625.745789,966.032837 681.403564,966.098022 737.061279,966.142517 
	C745.725403,966.149414 754.390320,966.102661 763.053467,965.979736 
	C765.918884,965.939087 768.983093,964.951111 768.308044,961.595276 
	C767.903687,959.584961 765.499817,957.092896 763.491638,956.488403 
	C760.155579,955.484253 756.414734,955.825134 751.768616,955.531433 
	C752.290222,943.465698 756.821533,933.009399 759.885193,921.825989 
	C766.832825,921.694275 773.794312,921.787903 780.724121,921.364441 
	C787.057007,920.977417 788.079041,918.682617 784.824341,913.033630 
	C784.184021,911.922363 783.061035,911.089294 781.656616,908.754211 
	C780.415833,905.165466 779.175110,901.576782 778.274353,896.450256 
	C777.493713,892.954163 776.713074,889.458130 775.649963,884.621338 
	C775.098450,875.856567 774.116394,867.091187 774.127258,858.327148 
	C774.136414,850.886963 775.291687,843.448181 776.365906,835.097168 
	C776.155701,833.439514 775.945496,831.781921 776.031372,828.620789 
	C777.523804,824.980103 778.941895,821.306641 780.526672,817.706604 
	C782.712219,812.741333 782.688721,808.078247 779.185303,803.659668 
	C777.949280,802.100769 776.859497,800.415100 775.809448,798.721375 
	C770.699768,790.479431 770.949524,787.114746 777.821594,780.583069 
	C787.449280,771.432251 797.310608,762.527893 806.998291,753.439514 
	C812.263550,748.499878 812.196167,747.526672 806.568359,742.645447 
	C802.302795,738.945801 798.127625,735.098633 793.573120,731.782898 
	C773.336182,717.049866 755.004639,700.228516 739.490356,680.631653 
	C730.040344,668.694885 721.795593,655.789001 713.273438,643.140564 
	C710.259094,638.666870 708.822693,634.374390 713.079773,628.766785 
	C715.654358,625.375549 716.589111,618.713196 715.117493,614.662354 
	C710.970459,603.247070 709.976685,590.445374 701.417542,580.778564 
	C700.129211,579.323547 699.327576,577.381592 698.517639,575.567932 
	C692.185242,561.388000 682.762634,551.135681 664.959473,548.812317 
	C660.081909,548.351013 655.201050,547.468079 650.327393,547.506470 
	C634.903687,547.627930 619.482605,548.093750 602.523010,548.554138 
	C589.026001,551.339050 576.593872,556.427979 565.470276,564.769958 
	C560.396423,568.574890 556.208923,572.866882 556.547119,579.391602 
	C557.007935,588.282227 558.356567,597.126953 559.278015,607.852722 
	C559.684570,615.456909 559.756226,623.097412 560.577698,630.656555 
	C561.756531,641.504578 563.473877,652.294312 564.976379,663.106812 
	C566.933044,677.188110 568.998169,691.255249 570.822937,705.353577 
	C571.542969,710.916931 571.636047,716.558350 572.196411,722.146057 
	C574.170654,741.831543 576.178955,761.514038 578.307922,781.183228 
	C578.552795,783.444763 579.637329,785.615479 580.132385,789.155334 
	C580.477173,791.316650 580.822021,793.478027 580.991760,797.515442 
M2430.929443,761.185547 
	C2438.710693,761.357971 2442.450195,766.013672 2443.129150,773.110352 
	C2444.889160,791.507751 2445.206787,809.740845 2435.266113,826.490356 
	C2432.900879,830.475708 2431.017090,834.770813 2429.178955,839.038391 
	C2427.212891,843.602051 2428.931641,846.875793 2433.489502,848.465942 
	C2435.968750,849.330872 2438.619385,850.053711 2441.220947,850.162292 
	C2456.852051,850.814453 2472.489014,851.404785 2488.129883,851.689636 
	C2491.717285,851.754944 2495.429443,850.880371 2498.902100,849.833740 
	C2503.216553,848.533508 2504.936035,845.035400 2502.450684,841.285034 
	C2500.164062,837.834778 2496.984619,834.648132 2493.519287,832.385925 
	C2488.645508,829.204407 2485.712646,825.380432 2485.374023,819.522949 
	C2485.182373,816.206055 2484.296875,812.906616 2484.319336,809.603394 
	C2484.556641,774.615051 2485.135986,739.627380 2485.119629,704.639832 
	C2485.113525,691.967896 2487.574219,680.927917 2498.472168,673.102173 
	C2499.780762,672.162476 2500.841797,670.710693 2501.662354,669.290894 
	C2504.016357,665.218262 2503.209229,660.360474 2499.284180,657.802979 
	C2496.863281,656.225525 2493.794189,654.812439 2490.997803,654.776672 
	C2473.687500,654.554932 2456.313477,653.893250 2439.076904,655.074158 
	C2425.846436,655.980713 2423.866455,661.411011 2431.506104,672.492737 
	C2442.726318,688.767822 2442.997314,706.874329 2440.867432,725.315063 
	C2439.947754,733.278137 2437.723877,735.464783 2429.923340,735.670410 
	C2411.623535,736.152771 2393.303223,735.932373 2374.991699,735.850586 
	C2369.555664,735.826294 2366.449463,732.513916 2365.234375,727.454407 
	C2364.618896,724.889404 2364.258057,722.226501 2364.118408,719.590088 
	C2363.223145,702.701355 2365.460449,686.592102 2373.468262,671.210632 
	C2380.758057,657.208374 2378.620605,654.330627 2362.630127,652.752014 
	C2361.635254,652.653809 2360.633545,652.509277 2359.639648,652.538940 
	C2343.324463,653.025879 2327.008789,653.499939 2310.697510,654.092407 
	C2308.743408,654.163391 2306.747314,654.719910 2304.885498,655.376770 
	C2300.546875,656.907227 2299.007080,660.152832 2301.522217,663.962219 
	C2303.826172,667.451477 2306.775146,670.741028 2310.076416,673.295715 
	C2315.988525,677.870544 2319.717773,683.259155 2319.715332,690.945618 
	C2319.701416,731.268982 2319.729492,771.592407 2319.736084,811.915771 
	C2319.737061,818.660339 2316.982910,824.149414 2312.037598,828.624756 
	C2310.308350,830.189636 2308.642578,831.828430 2306.864258,833.334839 
	C2303.097900,836.525269 2302.089844,840.350952 2303.868896,844.971863 
	C2305.464844,849.118225 2308.928467,850.086365 2312.749512,849.986816 
	C2330.388184,849.527649 2348.066650,849.514954 2365.646240,848.207153 
	C2379.640625,847.166138 2381.521240,842.510986 2373.033447,831.336243 
	C2365.427979,821.323120 2361.776611,810.345703 2361.915039,797.915283 
	C2361.996826,790.584961 2361.747559,783.244019 2362.049316,775.924500 
	C2362.576172,763.157227 2365.287109,759.843079 2378.318848,759.629456 
	C2395.282227,759.351379 2412.266113,760.328796 2430.929443,761.185547 
M972.214172,847.229858 
	C978.830444,842.453369 975.981934,835.786072 975.528748,829.735107 
	C974.087952,810.498840 972.071594,791.297668 971.064392,772.041748 
	C970.743774,765.913025 971.954407,759.311951 974.094421,753.530334 
	C978.245911,742.313782 989.081299,736.340149 1000.246399,737.807983 
	C1009.475403,739.021240 1015.025391,744.500793 1016.044800,757.825806 
	C1017.513367,777.023865 1017.594604,796.360535 1017.401611,815.629395 
	C1017.355896,820.195862 1014.045288,824.815063 1011.893066,829.243103 
	C1010.596680,831.910461 1008.281860,834.092957 1007.052307,836.780518 
	C1004.715454,841.888184 1006.969971,846.989502 1012.343994,848.694275 
	C1015.145874,849.583008 1018.225464,849.906677 1021.184631,849.933716 
	C1032.507202,850.037109 1043.834961,850.061340 1055.154175,849.815308 
	C1060.395630,849.701355 1066.760864,850.430908 1069.687744,845.199890 
	C1073.005859,839.269653 1068.103516,834.484009 1064.770020,830.092102 
	C1059.754028,823.483704 1056.713623,816.257996 1056.806763,807.975769 
	C1056.993774,791.344116 1056.853882,774.678162 1057.930176,758.096619 
	C1058.807739,744.577026 1068.500854,735.945740 1080.524780,736.118469 
	C1093.031860,736.298218 1100.046997,743.228821 1101.818115,757.846252 
	C1102.777832,765.768250 1103.770386,773.811157 1103.421875,781.741272 
	C1102.663330,799.005371 1101.318848,816.257019 1099.699829,833.465332 
	C1098.647095,844.655640 1101.486450,849.209595 1112.690674,849.889404 
	C1121.304321,850.412048 1130.013062,850.121521 1138.630615,849.507507 
	C1142.844116,849.207397 1147.169800,847.841858 1151.053711,846.091125 
	C1159.676270,842.204346 1160.564209,836.769165 1152.881348,831.592773 
	C1144.394897,825.875000 1141.811890,818.504272 1141.833740,808.690186 
	C1141.869995,792.388794 1140.906860,776.080566 1140.156250,759.784851 
	C1139.942749,755.151855 1139.206665,750.515442 1138.368286,745.943237 
	C1133.450806,719.124817 1113.870117,706.283081 1087.140259,712.953735 
	C1078.822144,715.029541 1070.770874,718.534302 1062.953369,722.153809 
	C1055.500732,725.604370 1049.360962,724.959290 1042.517578,720.297974 
	C1036.891235,716.465820 1030.356323,713.386963 1023.781555,711.649170 
	C1010.207153,708.060974 997.428467,711.942017 985.302551,718.188965 
	C981.207520,720.298523 977.263123,722.700439 972.842529,725.198975 
	C969.743591,722.426636 967.317627,719.583984 964.287354,717.727844 
	C961.024475,715.729187 957.051086,713.141724 953.640625,713.466675 
	C944.097473,714.375854 934.525146,716.067383 925.271423,718.580811 
	C917.881775,720.587891 916.658020,724.626587 919.748596,731.588074 
	C920.823975,734.010559 922.125793,736.361938 923.571838,738.584656 
	C927.654846,744.860474 930.186035,751.615051 930.443359,759.152527 
	C930.908875,772.785034 931.167236,786.429016 931.917542,800.045837 
	C932.549194,811.508484 930.179504,821.332642 921.908630,830.165588 
	C914.183105,838.416260 916.877380,845.334778 928.157776,848.050476 
	C942.255493,851.444397 956.512146,851.227051 972.214172,847.229858 
M1945.578979,688.763855 
	C1945.768799,730.375122 1945.905640,771.986755 1946.201782,813.597290 
	C1946.249390,820.298340 1943.373047,824.988159 1938.015747,828.576477 
	C1934.983398,830.607788 1931.634766,832.410095 1929.191406,835.027527 
	C1923.914673,840.680054 1925.998779,847.571838 1933.532349,849.158386 
	C1938.362549,850.175598 1943.442017,850.306274 1948.411133,850.319763 
	C1982.377441,850.412048 2016.344238,850.381531 2050.310791,850.349670 
	C2054.303223,850.345947 2058.321533,850.332703 2062.283203,849.908447 
	C2072.114502,848.855774 2079.376953,843.901794 2082.098877,834.241943 
	C2083.686768,828.606262 2084.376221,822.495789 2084.198730,816.637451 
	C2083.948242,808.390015 2080.945312,806.534363 2073.321777,809.322571 
	C2063.649170,812.860046 2054.312988,817.363953 2044.544189,820.577942 
	C2035.755981,823.469482 2026.690674,826.103638 2017.549316,827.205383 
	C2002.568115,829.010864 1994.626343,823.325989 1991.027710,809.148438 
	C1987.959961,797.062927 1988.382568,784.714417 1990.064819,772.421387 
	C1990.680298,767.923279 1993.725586,765.422058 1997.678589,764.004883 
	C2007.190430,760.594971 2016.336060,760.080444 2025.167114,766.512329 
	C2029.089600,769.369263 2033.739868,771.505859 2038.368286,773.036743 
	C2043.074463,774.593384 2047.156494,772.569275 2048.555420,767.615784 
	C2051.669434,756.590088 2053.057617,745.329224 2049.301025,734.210876 
	C2046.520752,725.982117 2041.774170,724.121826 2033.799194,727.451782 
	C2030.437866,728.855408 2027.382935,731.033936 2023.975952,732.277710 
	C2018.717285,734.197449 2013.362549,736.539368 2007.893433,737.054443 
	C1996.677246,738.110596 1989.132568,732.208557 1989.010620,721.392944 
	C1988.891846,710.850403 1990.054321,700.114624 1992.180908,689.777710 
	C1994.162842,680.144470 2000.308960,675.472656 2010.114014,675.571228 
	C2018.319946,675.653748 2026.822632,676.599854 2034.622192,679.011963 
	C2044.382568,682.030396 2053.626465,686.790771 2062.961670,691.086060 
	C2068.761963,693.755005 2073.257080,693.079163 2075.800049,688.487305 
	C2081.760742,677.724121 2074.926514,658.342346 2063.459717,654.555176 
	C2059.108154,653.117981 2054.294434,652.462708 2049.696533,652.484863 
	C2012.401978,652.664490 1975.107178,652.999939 1937.817505,653.597046 
	C1934.542725,653.649475 1930.025391,654.995544 1928.346069,657.351929 
	C1925.810425,660.909912 1928.607666,664.920227 1931.315308,668.035278 
	C1932.841064,669.790527 1934.826660,671.192627 1936.137329,673.078857 
	C1939.318604,677.657166 1942.226196,682.425659 1945.578979,688.763855 
M1408.435791,665.593018 
	C1405.692871,673.432983 1402.288208,681.110840 1400.320435,689.140808 
	C1391.345337,725.766357 1377.454224,760.648438 1363.628540,795.591736 
	C1357.552368,810.948669 1350.866455,825.635986 1336.872559,835.578369 
	C1336.335938,835.959595 1335.873901,836.464172 1335.436157,836.963013 
	C1331.640381,841.288147 1332.169312,845.588440 1337.164673,848.392639 
	C1339.122559,849.491699 1341.528687,850.182495 1343.774292,850.314026 
	C1356.379517,851.052307 1368.995850,851.964294 1381.612549,852.028625 
	C1392.280396,852.083008 1394.314941,848.428223 1390.647949,838.087463 
	C1388.763794,832.774048 1386.426025,827.555420 1385.194214,822.090942 
	C1382.896240,811.896484 1387.223267,803.203613 1392.725830,795.046631 
	C1397.322021,788.233459 1404.683716,788.601013 1411.615845,788.375793 
	C1420.597656,788.084045 1429.593872,788.010559 1438.580078,788.127991 
	C1454.486206,788.335876 1459.173584,792.052368 1463.251587,807.226379 
	C1463.595825,808.507629 1463.716919,809.847229 1464.015625,811.142578 
	C1466.119995,820.269409 1464.260620,828.849854 1461.135132,837.497498 
	C1458.041016,846.058350 1460.057617,848.976379 1469.020874,850.464294 
	C1472.292847,851.007446 1475.648438,851.426636 1478.951172,851.340027 
	C1492.261841,850.991089 1505.574341,850.564941 1518.869873,849.859680 
	C1523.729980,849.601807 1529.708008,849.952271 1531.913574,844.511475 
	C1534.480957,838.178284 1529.009888,834.746521 1524.872192,831.644043 
	C1516.272583,825.195862 1510.619751,816.906433 1507.433838,806.745300 
	C1506.341187,803.260498 1504.967285,799.862427 1503.681152,796.440125 
	C1490.467773,761.279175 1477.581299,725.989197 1463.816162,691.045471 
	C1459.846802,680.969177 1454.304321,671.166626 1447.787109,662.516479 
	C1436.388916,647.387878 1419.816650,648.605103 1408.435791,665.593018 
M1751.597656,653.476501 
	C1747.934204,653.605408 1744.058716,653.041626 1740.672852,654.077759 
	C1737.858154,654.939148 1734.150757,657.216003 1733.373047,659.669250 
	C1729.503418,671.872803 1729.148315,684.601624 1730.353149,697.250854 
	C1730.849731,702.463013 1735.652466,704.308472 1740.005737,701.230042 
	C1745.708740,697.197266 1750.853638,692.383484 1756.476074,688.226562 
	C1761.269409,684.682312 1766.046021,680.770874 1771.444580,678.453369 
	C1788.070312,671.316528 1798.463867,675.256470 1798.267090,694.683960 
	C1797.899048,731.010254 1797.892212,767.344299 1798.213257,803.670898 
	C1798.306274,814.194336 1794.726929,822.389038 1787.088257,829.233032 
	C1784.612549,831.451111 1782.257812,833.846130 1780.121826,836.390442 
	C1777.794800,839.162292 1774.487183,842.471069 1777.014404,846.005005 
	C1778.611084,848.237488 1782.549316,848.851807 1785.504761,850.021423 
	C1786.380005,850.367737 1787.484497,850.163452 1788.484009,850.162292 
	C1808.814087,850.137634 1829.144043,850.116638 1849.474121,850.058655 
	C1851.469604,850.052917 1853.505737,850.023315 1855.451904,849.642029 
	C1862.699707,848.221802 1864.718994,843.135254 1860.068726,837.317017 
	C1857.817261,834.500244 1854.907715,832.083374 1851.940796,829.989014 
	C1843.664185,824.146240 1839.889648,816.583618 1839.958618,806.223694 
	C1840.209595,768.561340 1839.924927,730.895386 1839.871216,693.230835 
	C1839.867798,690.903137 1839.892456,688.536621 1840.286011,686.254089 
	C1841.657837,678.297485 1845.083862,675.620789 1853.226807,675.519836 
	C1863.538696,675.391968 1871.911621,679.609436 1879.088745,686.673462 
	C1883.597290,691.111206 1887.776611,695.960449 1892.689819,699.892700 
	C1900.526611,706.164978 1906.519653,704.223022 1907.139160,694.607056 
	C1907.839966,683.729431 1906.734619,672.713989 1906.065308,661.779907 
	C1905.790771,657.292419 1902.765137,654.481934 1898.318359,653.862427 
	C1893.062500,653.130249 1887.746338,652.355835 1882.460693,652.386108 
	C1839.463013,652.632263 1796.466309,653.062500 1751.597656,653.476501 
M2236.039307,684.718872 
	C2243.552002,690.236206 2250.857666,696.068420 2258.636475,701.180969 
	C2266.186035,706.143005 2271.746094,703.573181 2272.145020,694.460083 
	C2272.504150,686.259460 2271.428467,677.917725 2270.219971,669.751648 
	C2269.269775,663.332092 2264.816650,659.156860 2258.671143,657.151917 
	C2254.577393,655.816345 2250.393555,654.188293 2246.170898,653.915283 
	C2228.587402,652.778076 2210.912109,650.759521 2193.385742,651.567017 
	C2164.811523,652.883301 2141.656006,665.959106 2125.408203,689.710632 
	C2106.680176,717.087463 2102.577148,747.490479 2109.351318,779.497009 
	C2114.044434,801.671997 2124.198975,820.980530 2142.959717,834.472412 
	C2177.305176,859.171631 2214.221924,858.955872 2252.048340,843.980469 
	C2262.381348,839.889771 2268.793213,831.032532 2273.611084,821.252014 
	C2275.714844,816.980957 2277.358398,812.121155 2273.348633,808.234375 
	C2268.770996,803.797485 2264.758057,807.933960 2260.874023,810.195496 
	C2252.552246,815.041016 2244.676758,820.850647 2235.943359,824.754883 
	C2211.183105,835.823975 2175.402344,831.744995 2159.778564,794.785706 
	C2155.559082,784.803772 2152.428223,773.933167 2151.217285,763.197571 
	C2148.763916,741.445862 2150.834229,719.875610 2160.868408,699.910950 
	C2170.751221,680.247864 2188.320801,671.209473 2210.202881,673.678162 
	C2219.422607,674.718323 2227.338379,678.754517 2236.039307,684.718872 
M1186.847412,820.107300 
	C1200.487671,845.819946 1229.260742,857.808289 1261.222412,852.675659 
	C1296.929443,846.941467 1321.817871,814.262573 1319.478027,776.892822 
	C1317.581909,746.612305 1303.657349,724.609985 1274.532715,713.396362 
	C1262.978027,708.947571 1250.954468,708.518433 1239.108887,710.194397 
	C1211.048340,714.164673 1190.975708,729.029053 1182.236084,756.580261 
	C1175.571655,777.589539 1176.585815,798.586731 1186.847412,820.107300 
M1616.787476,757.001465 
	C1617.059326,740.026428 1617.706543,723.046631 1617.493042,706.077698 
	C1617.296753,690.486328 1619.205200,676.202271 1633.299072,666.347412 
	C1636.353882,664.211426 1638.540283,660.217529 1636.061035,656.745667 
	C1634.442261,654.478638 1630.740601,652.431641 1627.982788,652.445618 
	C1605.706787,652.558350 1583.430054,653.082825 1561.162476,653.769287 
	C1558.117432,653.863220 1555.121460,655.544312 1551.879272,656.560608 
	C1552.676880,664.818970 1558.046875,668.449646 1563.122192,672.031616 
	C1571.097778,677.660767 1575.325684,685.301025 1575.318604,694.860596 
	C1575.291748,731.468079 1574.858154,768.075378 1574.863403,804.682739 
	C1574.865112,816.386780 1570.300537,825.109436 1560.614868,831.548279 
	C1556.445923,834.319702 1552.875854,837.867493 1553.138916,844.994019 
	C1556.406860,845.991760 1559.984985,847.911987 1563.635864,848.061707 
	C1583.920288,848.893921 1604.221680,849.325500 1624.519409,849.805176 
	C1626.822266,849.859558 1629.217773,849.651855 1631.433105,849.056030 
	C1637.483276,847.428711 1638.826782,843.950134 1635.076294,838.728516 
	C1632.775635,835.525452 1629.759644,832.786743 1626.829590,830.095642 
	C1620.886475,824.637207 1617.691040,818.256165 1617.690063,809.924866 
	C1617.688110,792.950623 1617.123291,775.976318 1616.787476,757.001465 
z"/>
<path fill="#FAFCFD" opacity="1.000000" stroke="none" 
	d="
M2430.085449,760.975708 
	C2412.266113,760.328796 2395.282227,759.351379 2378.318848,759.629456 
	C2365.287109,759.843079 2362.576172,763.157227 2362.049316,775.924500 
	C2361.747559,783.244019 2361.996826,790.584961 2361.915039,797.915283 
	C2361.776611,810.345703 2365.427979,821.323120 2373.033447,831.336243 
	C2381.521240,842.510986 2379.640625,847.166138 2365.646240,848.207153 
	C2348.066650,849.514954 2330.388184,849.527649 2312.749512,849.986816 
	C2308.928467,850.086365 2305.464844,849.118225 2303.868896,844.971863 
	C2302.089844,840.350952 2303.097900,836.525269 2306.864258,833.334839 
	C2308.642578,831.828430 2310.308350,830.189636 2312.037598,828.624756 
	C2316.982910,824.149414 2319.737061,818.660339 2319.736084,811.915771 
	C2319.729492,771.592407 2319.701416,731.268982 2319.715332,690.945618 
	C2319.717773,683.259155 2315.988525,677.870544 2310.076416,673.295715 
	C2306.775146,670.741028 2303.826172,667.451477 2301.522217,663.962219 
	C2299.007080,660.152832 2300.546875,656.907227 2304.885498,655.376770 
	C2306.747314,654.719910 2308.743408,654.163391 2310.697510,654.092407 
	C2327.008789,653.499939 2343.324463,653.025879 2359.639648,652.538940 
	C2360.633545,652.509277 2361.635254,652.653809 2362.630127,652.752014 
	C2378.620605,654.330627 2380.758057,657.208374 2373.468262,671.210632 
	C2365.460449,686.592102 2363.223145,702.701355 2364.118408,719.590088 
	C2364.258057,722.226501 2364.618896,724.889404 2365.234375,727.454407 
	C2366.449463,732.513916 2369.555664,735.826294 2374.991699,735.850586 
	C2393.303223,735.932373 2411.623535,736.152771 2429.923340,735.670410 
	C2437.723877,735.464783 2439.947754,733.278137 2440.867432,725.315063 
	C2442.997314,706.874329 2442.726318,688.767822 2431.506104,672.492737 
	C2423.866455,661.411011 2425.846436,655.980713 2439.076904,655.074158 
	C2456.313477,653.893250 2473.687500,654.554932 2490.997803,654.776672 
	C2493.794189,654.812439 2496.863281,656.225525 2499.284180,657.802979 
	C2503.209229,660.360474 2504.016357,665.218262 2501.662354,669.290894 
	C2500.841797,670.710693 2499.780762,672.162476 2498.472168,673.102173 
	C2487.574219,680.927917 2485.113525,691.967896 2485.119629,704.639832 
	C2485.135986,739.627380 2484.556641,774.615051 2484.319336,809.603394 
	C2484.296875,812.906616 2485.182373,816.206055 2485.374023,819.522949 
	C2485.712646,825.380432 2488.645508,829.204407 2493.519287,832.385925 
	C2496.984619,834.648132 2500.164062,837.834778 2502.450684,841.285034 
	C2504.936035,845.035400 2503.216553,848.533508 2498.902100,849.833740 
	C2495.429443,850.880371 2491.717285,851.754944 2488.129883,851.689636 
	C2472.489014,851.404785 2456.852051,850.814453 2441.220947,850.162292 
	C2438.619385,850.053711 2435.968750,849.330872 2433.489502,848.465942 
	C2428.931641,846.875793 2427.212891,843.602051 2429.178955,839.038391 
	C2431.017090,834.770813 2432.900879,830.475708 2435.266113,826.490356 
	C2445.206787,809.740845 2444.889160,791.507751 2443.129150,773.110352 
	C2442.450195,766.013672 2438.710693,761.357971 2430.085449,760.975708 
z"/>
<path fill="#FBFCFD" opacity="1.000000" stroke="none" 
	d="
M971.449219,847.613892 
	C956.512146,851.227051 942.255493,851.444397 928.157776,848.050476 
	C916.877380,845.334778 914.183105,838.416260 921.908630,830.165588 
	C930.179504,821.332642 932.549194,811.508484 931.917542,800.045837 
	C931.167236,786.429016 930.908875,772.785034 930.443359,759.152527 
	C930.186035,751.615051 927.654846,744.860474 923.571838,738.584656 
	C922.125793,736.361938 920.823975,734.010559 919.748596,731.588074 
	C916.658020,724.626587 917.881775,720.587891 925.271423,718.580811 
	C934.525146,716.067383 944.097473,714.375854 953.640625,713.466675 
	C957.051086,713.141724 961.024475,715.729187 964.287354,717.727844 
	C967.317627,719.583984 969.743591,722.426636 972.842529,725.198975 
	C977.263123,722.700439 981.207520,720.298523 985.302551,718.188965 
	C997.428467,711.942017 1010.207153,708.060974 1023.781555,711.649170 
	C1030.356323,713.386963 1036.891235,716.465820 1042.517578,720.297974 
	C1049.360962,724.959290 1055.500732,725.604370 1062.953369,722.153809 
	C1070.770874,718.534302 1078.822144,715.029541 1087.140259,712.953735 
	C1113.870117,706.283081 1133.450806,719.124817 1138.368286,745.943237 
	C1139.206665,750.515442 1139.942749,755.151855 1140.156250,759.784851 
	C1140.906860,776.080566 1141.869995,792.388794 1141.833740,808.690186 
	C1141.811890,818.504272 1144.394897,825.875000 1152.881348,831.592773 
	C1160.564209,836.769165 1159.676270,842.204346 1151.053711,846.091125 
	C1147.169800,847.841858 1142.844116,849.207397 1138.630615,849.507507 
	C1130.013062,850.121521 1121.304321,850.412048 1112.690674,849.889404 
	C1101.486450,849.209595 1098.647095,844.655640 1099.699829,833.465332 
	C1101.318848,816.257019 1102.663330,799.005371 1103.421875,781.741272 
	C1103.770386,773.811157 1102.777832,765.768250 1101.818115,757.846252 
	C1100.046997,743.228821 1093.031860,736.298218 1080.524780,736.118469 
	C1068.500854,735.945740 1058.807739,744.577026 1057.930176,758.096619 
	C1056.853882,774.678162 1056.993774,791.344116 1056.806763,807.975769 
	C1056.713623,816.257996 1059.754028,823.483704 1064.770020,830.092102 
	C1068.103516,834.484009 1073.005859,839.269653 1069.687744,845.199890 
	C1066.760864,850.430908 1060.395630,849.701355 1055.154175,849.815308 
	C1043.834961,850.061340 1032.507202,850.037109 1021.184631,849.933716 
	C1018.225464,849.906677 1015.145874,849.583008 1012.343994,848.694275 
	C1006.969971,846.989502 1004.715454,841.888184 1007.052307,836.780518 
	C1008.281860,834.092957 1010.596680,831.910461 1011.893066,829.243103 
	C1014.045288,824.815063 1017.355896,820.195862 1017.401611,815.629395 
	C1017.594604,796.360535 1017.513367,777.023865 1016.044800,757.825806 
	C1015.025391,744.500793 1009.475403,739.021240 1000.246399,737.807983 
	C989.081299,736.340149 978.245911,742.313782 974.094421,753.530334 
	C971.954407,759.311951 970.743774,765.913025 971.064392,772.041748 
	C972.071594,791.297668 974.087952,810.498840 975.528748,829.735107 
	C975.981934,835.786072 978.830444,842.453369 971.449219,847.613892 
z"/>
<path fill="#FAFCFD" opacity="1.000000" stroke="none" 
	d="
M1945.411499,687.940674 
	C1942.226196,682.425659 1939.318604,677.657166 1936.137329,673.078857 
	C1934.826660,671.192627 1932.841064,669.790527 1931.315308,668.035278 
	C1928.607666,664.920227 1925.810425,660.909912 1928.346069,657.351929 
	C1930.025391,654.995544 1934.542725,653.649475 1937.817505,653.597046 
	C1975.107178,652.999939 2012.401978,652.664490 2049.696533,652.484863 
	C2054.294434,652.462708 2059.108154,653.117981 2063.459717,654.555176 
	C2074.926514,658.342346 2081.760742,677.724121 2075.800049,688.487305 
	C2073.257080,693.079163 2068.761963,693.755005 2062.961670,691.086060 
	C2053.626465,686.790771 2044.382568,682.030396 2034.622192,679.011963 
	C2026.822632,676.599854 2018.319946,675.653748 2010.114014,675.571228 
	C2000.308960,675.472656 1994.162842,680.144470 1992.180908,689.777710 
	C1990.054321,700.114624 1988.891846,710.850403 1989.010620,721.392944 
	C1989.132568,732.208557 1996.677246,738.110596 2007.893433,737.054443 
	C2013.362549,736.539368 2018.717285,734.197449 2023.975952,732.277710 
	C2027.382935,731.033936 2030.437866,728.855408 2033.799194,727.451782 
	C2041.774170,724.121826 2046.520752,725.982117 2049.301025,734.210876 
	C2053.057617,745.329224 2051.669434,756.590088 2048.555420,767.615784 
	C2047.156494,772.569275 2043.074463,774.593384 2038.368286,773.036743 
	C2033.739868,771.505859 2029.089600,769.369263 2025.167114,766.512329 
	C2016.336060,760.080444 2007.190430,760.594971 1997.678589,764.004883 
	C1993.725586,765.422058 1990.680298,767.923279 1990.064819,772.421387 
	C1988.382568,784.714417 1987.959961,797.062927 1991.027710,809.148438 
	C1994.626343,823.325989 2002.568115,829.010864 2017.549316,827.205383 
	C2026.690674,826.103638 2035.755981,823.469482 2044.544189,820.577942 
	C2054.312988,817.363953 2063.649170,812.860046 2073.321777,809.322571 
	C2080.945312,806.534363 2083.948242,808.390015 2084.198730,816.637451 
	C2084.376221,822.495789 2083.686768,828.606262 2082.098877,834.241943 
	C2079.376953,843.901794 2072.114502,848.855774 2062.283203,849.908447 
	C2058.321533,850.332703 2054.303223,850.345947 2050.310791,850.349670 
	C2016.344238,850.381531 1982.377441,850.412048 1948.411133,850.319763 
	C1943.442017,850.306274 1938.362549,850.175598 1933.532349,849.158386 
	C1925.998779,847.571838 1923.914673,840.680054 1929.191406,835.027527 
	C1931.634766,832.410095 1934.983398,830.607788 1938.015747,828.576477 
	C1943.373047,824.988159 1946.249390,820.298340 1946.201782,813.597290 
	C1945.905640,771.986755 1945.768799,730.375122 1945.411499,687.940674 
z"/>
<path fill="#FAFCFD" opacity="1.000000" stroke="none" 
	d="
M1408.803467,664.947266 
	C1419.816650,648.605103 1436.388916,647.387878 1447.787109,662.516479 
	C1454.304321,671.166626 1459.846802,680.969177 1463.816162,691.045471 
	C1477.581299,725.989197 1490.467773,761.279175 1503.681152,796.440125 
	C1504.967285,799.862427 1506.341187,803.260498 1507.433838,806.745300 
	C1510.619751,816.906433 1516.272583,825.195862 1524.872192,831.644043 
	C1529.009888,834.746521 1534.480957,838.178284 1531.913574,844.511475 
	C1529.708008,849.952271 1523.729980,849.601807 1518.869873,849.859680 
	C1505.574341,850.564941 1492.261841,850.991089 1478.951172,851.340027 
	C1475.648438,851.426636 1472.292847,851.007446 1469.020874,850.464294 
	C1460.057617,848.976379 1458.041016,846.058350 1461.135132,837.497498 
	C1464.260620,828.849854 1466.119995,820.269409 1464.015625,811.142578 
	C1463.716919,809.847229 1463.595825,808.507629 1463.251587,807.226379 
	C1459.173584,792.052368 1454.486206,788.335876 1438.580078,788.127991 
	C1429.593872,788.010559 1420.597656,788.084045 1411.615845,788.375793 
	C1404.683716,788.601013 1397.322021,788.233459 1392.725830,795.046631 
	C1387.223267,803.203613 1382.896240,811.896484 1385.194214,822.090942 
	C1386.426025,827.555420 1388.763794,832.774048 1390.647949,838.087463 
	C1394.314941,848.428223 1392.280396,852.083008 1381.612549,852.028625 
	C1368.995850,851.964294 1356.379517,851.052307 1343.774292,850.314026 
	C1341.528687,850.182495 1339.122559,849.491699 1337.164673,848.392639 
	C1332.169312,845.588440 1331.640381,841.288147 1335.436157,836.963013 
	C1335.873901,836.464172 1336.335938,835.959595 1336.872559,835.578369 
	C1350.866455,825.635986 1357.552368,810.948669 1363.628540,795.591736 
	C1377.454224,760.648438 1391.345337,725.766357 1400.320435,689.140808 
	C1402.288208,681.110840 1405.692871,673.432983 1408.803467,664.947266 
M1403.515869,766.650146 
	C1418.954224,767.966919 1434.376465,768.915100 1450.509033,765.536621 
	C1443.876831,741.687805 1435.157104,719.885193 1425.002808,698.370300 
	C1416.847168,717.806824 1409.630371,737.083679 1402.745605,756.478394 
	C1401.728760,759.342529 1402.283691,762.764648 1403.515869,766.650146 
z"/>
<path fill="#F9FBFC" opacity="1.000000" stroke="none" 
	d="
M1752.533447,653.456665 
	C1796.466309,653.062500 1839.463013,652.632263 1882.460693,652.386108 
	C1887.746338,652.355835 1893.062500,653.130249 1898.318359,653.862427 
	C1902.765137,654.481934 1905.790771,657.292419 1906.065308,661.779907 
	C1906.734619,672.713989 1907.839966,683.729431 1907.139160,694.607056 
	C1906.519653,704.223022 1900.526611,706.164978 1892.689819,699.892700 
	C1887.776611,695.960449 1883.597290,691.111206 1879.088745,686.673462 
	C1871.911621,679.609436 1863.538696,675.391968 1853.226807,675.519836 
	C1845.083862,675.620789 1841.657837,678.297485 1840.286011,686.254089 
	C1839.892456,688.536621 1839.867798,690.903137 1839.871216,693.230835 
	C1839.924927,730.895386 1840.209595,768.561340 1839.958618,806.223694 
	C1839.889648,816.583618 1843.664185,824.146240 1851.940796,829.989014 
	C1854.907715,832.083374 1857.817261,834.500244 1860.068726,837.317017 
	C1864.718994,843.135254 1862.699707,848.221802 1855.451904,849.642029 
	C1853.505737,850.023315 1851.469604,850.052917 1849.474121,850.058655 
	C1829.144043,850.116638 1808.814087,850.137634 1788.484009,850.162292 
	C1787.484497,850.163452 1786.380005,850.367737 1785.504761,850.021423 
	C1782.549316,848.851807 1778.611084,848.237488 1777.014404,846.005005 
	C1774.487183,842.471069 1777.794800,839.162292 1780.121826,836.390442 
	C1782.257812,833.846130 1784.612549,831.451111 1787.088257,829.233032 
	C1794.726929,822.389038 1798.306274,814.194336 1798.213257,803.670898 
	C1797.892212,767.344299 1797.899048,731.010254 1798.267090,694.683960 
	C1798.463867,675.256470 1788.070312,671.316528 1771.444580,678.453369 
	C1766.046021,680.770874 1761.269409,684.682312 1756.476074,688.226562 
	C1750.853638,692.383484 1745.708740,697.197266 1740.005737,701.230042 
	C1735.652466,704.308472 1730.849731,702.463013 1730.353149,697.250854 
	C1729.148315,684.601624 1729.503418,671.872803 1733.373047,659.669250 
	C1734.150757,657.216003 1737.858154,654.939148 1740.672852,654.077759 
	C1744.058716,653.041626 1747.934204,653.605408 1752.533447,653.456665 
z"/>
<path fill="#FAFBFC" opacity="1.000000" stroke="none" 
	d="
M2235.424561,684.321594 
	C2227.338379,678.754517 2219.422607,674.718323 2210.202881,673.678162 
	C2188.320801,671.209473 2170.751221,680.247864 2160.868408,699.910950 
	C2150.834229,719.875610 2148.763916,741.445862 2151.217285,763.197571 
	C2152.428223,773.933167 2155.559082,784.803772 2159.778564,794.785706 
	C2175.402344,831.744995 2211.183105,835.823975 2235.943359,824.754883 
	C2244.676758,820.850647 2252.552246,815.041016 2260.874023,810.195496 
	C2264.758057,807.933960 2268.770996,803.797485 2273.348633,808.234375 
	C2277.358398,812.121155 2275.714844,816.980957 2273.611084,821.252014 
	C2268.793213,831.032532 2262.381348,839.889771 2252.048340,843.980469 
	C2214.221924,858.955872 2177.305176,859.171631 2142.959717,834.472412 
	C2124.198975,820.980530 2114.044434,801.671997 2109.351318,779.497009 
	C2102.577148,747.490479 2106.680176,717.087463 2125.408203,689.710632 
	C2141.656006,665.959106 2164.811523,652.883301 2193.385742,651.567017 
	C2210.912109,650.759521 2228.587402,652.778076 2246.170898,653.915283 
	C2250.393555,654.188293 2254.577393,655.816345 2258.671143,657.151917 
	C2264.816650,659.156860 2269.269775,663.332092 2270.219971,669.751648 
	C2271.428467,677.917725 2272.504150,686.259460 2272.145020,694.460083 
	C2271.746094,703.573181 2266.186035,706.143005 2258.636475,701.180969 
	C2250.857666,696.068420 2243.552002,690.236206 2235.424561,684.321594 
z"/>
<path fill="#FAFBFC" opacity="1.000000" stroke="none" 
	d="
M1186.494751,819.459839 
	C1176.585815,798.586731 1175.571655,777.589539 1182.236084,756.580261 
	C1190.975708,729.029053 1211.048340,714.164673 1239.108887,710.194397 
	C1250.954468,708.518433 1262.978027,708.947571 1274.532715,713.396362 
	C1303.657349,724.609985 1317.581909,746.612305 1319.478027,776.892822 
	C1321.817871,814.262573 1296.929443,846.941467 1261.222412,852.675659 
	C1229.260742,857.808289 1200.487671,845.819946 1186.494751,819.459839 
M1272.729126,752.853699 
	C1269.075928,746.973328 1266.271484,740.283630 1261.594849,735.379028 
	C1251.477051,724.767883 1235.269165,725.945129 1226.884521,737.929810 
	C1222.799072,743.769470 1219.814453,750.832825 1218.091309,757.778748 
	C1214.356567,772.832642 1214.623291,788.300171 1218.444458,803.258911 
	C1220.370239,810.797791 1223.979492,818.375671 1228.565063,824.669983 
	C1238.652832,838.516846 1256.069092,838.226074 1266.919312,824.904236 
	C1272.135376,818.499939 1274.985107,810.962097 1275.632812,802.940918 
	C1276.945557,786.683289 1277.742310,770.362915 1272.729126,752.853699 
z"/>
<path fill="#FBFCFD" opacity="1.000000" stroke="none" 
	d="
M1616.788818,758.001770 
	C1617.123291,775.976318 1617.688110,792.950623 1617.690063,809.924866 
	C1617.691040,818.256165 1620.886475,824.637207 1626.829590,830.095642 
	C1629.759644,832.786743 1632.775635,835.525452 1635.076294,838.728516 
	C1638.826782,843.950134 1637.483276,847.428711 1631.433105,849.056030 
	C1629.217773,849.651855 1626.822266,849.859558 1624.519409,849.805176 
	C1604.221680,849.325500 1583.920288,848.893921 1563.635864,848.061707 
	C1559.984985,847.911987 1556.406860,845.991760 1553.138916,844.994019 
	C1552.875854,837.867493 1556.445923,834.319702 1560.614868,831.548279 
	C1570.300537,825.109436 1574.865112,816.386780 1574.863403,804.682739 
	C1574.858154,768.075378 1575.291748,731.468079 1575.318604,694.860596 
	C1575.325684,685.301025 1571.097778,677.660767 1563.122192,672.031616 
	C1558.046875,668.449646 1552.676880,664.818970 1551.879272,656.560608 
	C1555.121460,655.544312 1558.117432,653.863220 1561.162476,653.769287 
	C1583.430054,653.082825 1605.706787,652.558350 1627.982788,652.445618 
	C1630.740601,652.431641 1634.442261,654.478638 1636.061035,656.745667 
	C1638.540283,660.217529 1636.353882,664.211426 1633.299072,666.347412 
	C1619.205200,676.202271 1617.296753,690.486328 1617.493042,706.077698 
	C1617.706543,723.046631 1617.059326,740.026428 1616.788818,758.001770 
z"/>
<path fill="#919599" opacity="1.000000" stroke="none" 
	d="
M666.180847,549.870178 
	C682.762634,551.135681 692.185242,561.388000 698.517639,575.567932 
	C699.327576,577.381592 700.129211,579.323547 701.417542,580.778564 
	C709.976685,590.445374 710.970459,603.247070 715.117493,614.662354 
	C716.589111,618.713196 715.654358,625.375549 713.079773,628.766785 
	C708.822693,634.374390 710.259094,638.666870 713.273438,643.140564 
	C721.795593,655.789001 730.040344,668.694885 739.490356,680.631653 
	C755.004639,700.228516 773.336182,717.049866 793.573120,731.782898 
	C798.127625,735.098633 802.302795,738.945801 806.568359,742.645447 
	C812.196167,747.526672 812.263550,748.499878 806.998291,753.439514 
	C797.310608,762.527893 787.449280,771.432251 777.821594,780.583069 
	C770.949524,787.114746 770.699768,790.479431 775.809448,798.721375 
	C776.859497,800.415100 777.949280,802.100769 779.185303,803.659668 
	C782.688721,808.078247 782.712219,812.741333 780.526672,817.706604 
	C778.941895,821.306641 777.523804,824.980103 775.514282,829.802124 
	C775.311462,832.658630 775.625671,834.333679 775.939880,836.008789 
	C775.291687,843.448181 774.136414,850.886963 774.127258,858.327148 
	C774.116394,867.091187 775.098450,875.856567 775.341919,885.770935 
	C774.685242,888.611511 774.336670,890.302429 773.241760,892.005005 
	C771.500671,892.048218 770.505981,892.079895 769.208740,891.414551 
	C768.362000,886.168518 767.817749,881.619568 767.441040,876.369629 
	C766.759460,873.730347 765.910400,871.792114 764.823608,869.039429 
	C764.747986,864.865356 764.910217,861.505737 765.665344,857.753906 
	C766.622986,853.903137 766.987793,850.444702 767.282715,846.131653 
	C767.943237,838.912720 768.673523,832.548401 769.874268,825.915405 
	C772.250793,823.420349 774.592224,821.297058 772.098877,817.473022 
	C772.072021,816.527771 772.092896,816.149170 772.107910,815.382141 
	C771.412659,814.634399 770.723328,814.275024 769.100342,813.978027 
	C758.217651,813.743469 748.268738,813.446594 738.659790,812.517578 
	C742.080688,811.241760 745.140808,810.200928 748.246948,810.037903 
	C754.453308,809.712219 760.708191,810.183228 766.898743,809.725281 
	C771.911682,809.354553 772.239746,807.737671 768.821411,801.228760 
	C765.806946,793.943604 761.553467,790.634949 753.895447,791.906372 
	C750.133362,792.531006 746.071838,791.352234 741.823608,790.421509 
	C738.962585,789.263489 736.423889,788.673523 733.257568,787.904907 
	C729.587341,785.217102 726.544556,782.708069 723.996704,779.801819 
	C724.995239,778.266663 725.498901,777.128662 726.450562,775.503784 
	C727.336487,772.896729 727.774414,770.776611 728.534424,768.043152 
	C734.319519,757.571289 743.474915,753.149536 753.907776,751.235229 
	C765.309448,749.143250 776.843506,747.776306 788.308350,746.018311 
	C789.520508,745.832397 790.655640,745.143738 793.440552,744.060547 
	C791.059998,741.241882 789.679626,738.686218 787.547729,737.232117 
	C773.174744,727.428345 761.073059,715.087769 748.464905,703.256531 
	C727.309082,683.404602 710.945435,660.275818 699.360962,633.767334 
	C696.714539,627.711487 694.840332,621.285889 693.074158,614.902222 
	C692.673950,613.455688 693.769287,610.576294 694.969482,609.995422 
	C696.146179,609.425964 698.826782,610.470520 699.966248,611.654663 
	C701.857788,613.620300 703.043884,616.264771 704.527161,618.623291 
	C705.171143,618.376953 705.815125,618.130615 706.459106,617.884216 
	C705.594910,614.192810 705.185669,610.317017 703.778503,606.845703 
	C700.036377,597.614075 695.646301,588.644409 691.927673,579.404114 
	C688.591492,571.114319 683.638123,564.314087 675.828857,558.825928 
	C673.426880,557.637573 671.294922,557.084473 668.369080,556.501221 
	C664.415894,556.050110 661.256531,555.629089 658.377686,554.655396 
	C661.165710,552.691772 663.673279,551.280945 666.180847,549.870178 
M778.288147,769.266052 
	C782.510925,764.755798 789.715332,762.799194 791.079651,754.368652 
	C779.801941,755.740112 769.266846,756.580688 758.918335,758.452759 
	C753.150146,759.496277 747.340271,761.624084 742.224609,764.475220 
	C739.071472,766.232483 736.577454,769.970764 734.902771,773.369141 
	C733.038330,777.152649 734.492065,780.733398 739.039124,781.744995 
	C750.642029,784.326477 762.118164,785.915466 771.338989,775.579651 
	C773.093628,773.612915 775.271912,772.024048 778.288147,769.266052 
z"/>
<path fill="#95969B" opacity="1.000000" stroke="none" 
	d="
M758.046753,922.033447 
	C756.821533,933.009399 752.290222,943.465698 751.768616,955.531433 
	C756.414734,955.825134 760.155579,955.484253 763.491638,956.488403 
	C765.499817,957.092896 767.903687,959.584961 768.308044,961.595276 
	C768.983093,964.951111 765.918884,965.939087 763.053467,965.979736 
	C754.390320,966.102661 745.725403,966.149414 737.061279,966.142517 
	C681.403564,966.098022 625.745789,966.032837 570.088074,965.966003 
	C567.756470,965.963196 565.333496,966.250427 563.122925,965.709045 
	C561.414307,965.290649 558.674988,963.771240 558.685913,962.766296 
	C558.707581,960.784607 560.239197,957.161194 561.286133,957.110535 
	C569.846619,956.696960 570.690857,950.113159 573.129517,944.308105 
	C576.074890,948.168152 574.431763,953.836731 580.567383,956.116516 
	C634.725708,956.115845 687.910950,956.115845 741.612427,956.115845 
	C744.318909,944.981506 746.914062,935.065125 749.007690,925.043884 
	C749.420654,923.067383 747.901184,920.687256 747.895935,918.520386 
	C750.141296,920.207214 751.763611,921.866821 752.995300,923.126831 
	C754.770874,922.742493 756.408813,922.388000 758.046753,922.033447 
z"/>
<path fill="#A0A1A1" opacity="1.000000" stroke="none" 
	d="
M580.332458,787.828308 
	C579.637329,785.615479 578.552795,783.444763 578.307922,781.183228 
	C576.178955,761.514038 574.170654,741.831543 572.196411,722.146057 
	C571.636047,716.558350 571.542969,710.916931 570.822937,705.353577 
	C568.998169,691.255249 566.933044,677.188110 564.976379,663.106812 
	C563.473877,652.294312 561.756531,641.504578 560.577698,630.656555 
	C559.756226,623.097412 559.684570,615.456909 560.055786,606.712341 
	C562.124817,603.434021 563.415955,601.296143 565.268677,599.671265 
	C566.446533,602.725891 567.337891,605.236084 567.632446,607.814514 
	C569.067078,620.372925 570.303040,632.953857 571.682800,645.518799 
	C573.749512,664.338806 575.744812,683.168152 578.018677,701.963501 
	C580.094116,719.118408 582.766541,736.203918 584.658691,753.377014 
	C585.778259,763.538452 585.894348,773.810425 585.968994,783.601501 
	C584.686829,781.173706 583.897339,779.177063 582.948914,776.778809 
	C581.956116,780.971558 581.144287,784.399902 580.332458,787.828308 
z"/>
<path fill="#83888D" opacity="1.000000" stroke="none" 
	d="
M584.326355,902.122864 
	C585.798767,896.349731 587.882385,890.649353 588.579956,884.784058 
	C589.352173,878.292236 590.111633,871.345154 588.608398,865.146423 
	C586.533386,856.590027 585.745544,848.165283 585.732178,839.469421 
	C585.725098,834.839172 584.747009,830.210449 584.678101,824.061523 
	C585.148926,815.423828 585.148926,808.305542 585.148926,799.380737 
	C589.136536,803.203369 591.600830,805.565796 594.039856,807.944702 
	C594.014526,807.961243 594.052368,807.927307 594.235229,808.556824 
	C594.176575,810.653015 594.229614,812.256958 593.624817,813.554199 
	C592.711548,815.513184 590.138062,817.432007 590.374207,819.063354 
	C591.302612,825.477295 593.054077,831.771973 594.664917,838.926758 
	C594.871338,844.101685 594.912842,848.460693 594.710693,853.761108 
	C594.868774,859.600342 595.531738,864.493958 595.611328,869.396973 
	C595.732605,876.865540 595.450012,884.340637 595.336548,892.497192 
	C595.068115,894.048767 594.801941,894.916199 594.019409,896.156616 
	C592.549011,900.007080 591.594910,903.484558 590.687866,907.478271 
	C590.561646,908.659729 590.388306,909.324829 589.672729,909.991821 
	C588.770508,910.025574 588.410461,910.057434 587.614502,909.617798 
	C586.227844,906.805176 585.277100,904.463989 584.326355,902.122864 
z"/>
<path fill="#83888D" opacity="1.000000" stroke="none" 
	d="
M564.707153,599.158203 
	C563.415955,601.296143 562.124817,603.434021 560.079041,605.781616 
	C558.356567,597.126953 557.007935,588.282227 556.547119,579.391602 
	C556.208923,572.866882 560.396423,568.574890 565.470276,564.769958 
	C576.593872,556.427979 589.026001,551.339050 603.693604,549.032227 
	C606.834351,550.339844 608.876465,551.034729 610.754089,552.037537 
	C612.539246,552.990906 614.152588,554.266174 614.977966,555.536499 
	C604.353516,557.309265 594.592468,558.945374 584.088257,560.422607 
	C580.484375,559.986389 578.540283,561.003967 577.756348,564.234375 
	C577.493286,564.436096 576.838989,564.542725 576.153137,564.494751 
	C574.312561,565.627563 573.157776,566.808350 571.480103,568.454651 
	C564.853333,572.210754 563.539978,577.825928 563.200317,584.605347 
	C563.246399,587.417114 563.681885,589.726135 564.277649,592.738770 
	C564.527649,595.347717 564.617371,597.252991 564.707153,599.158203 
z"/>
<path fill="#A8A8AB" opacity="1.000000" stroke="none" 
	d="
M615.841431,555.399902 
	C614.152588,554.266174 612.539246,552.990906 610.754089,552.037537 
	C608.876465,551.034729 606.834351,550.339844 604.462341,548.968384 
	C619.482605,548.093750 634.903687,547.627930 650.327393,547.506470 
	C655.201050,547.468079 660.081909,548.351013 665.570190,549.341248 
	C663.673279,551.280945 661.165710,552.691772 657.460449,554.897339 
	C642.789001,555.594727 629.315186,555.497314 615.841431,555.399902 
z"/>
<path fill="#83888D" opacity="1.000000" stroke="none" 
	d="
M758.965942,921.929749 
	C756.408813,922.388000 754.770874,922.742493 752.995300,923.126831 
	C751.763611,921.866821 750.141296,920.207214 747.218079,918.518433 
	C744.621155,918.151367 743.325134,917.813416 741.798096,916.906372 
	C739.758606,910.888123 744.757324,912.762085 747.335083,911.396484 
	C748.556824,911.445923 749.251831,911.563782 750.523132,912.193848 
	C761.848206,916.606018 772.510254,919.461182 782.160645,910.127869 
	C783.061035,911.089294 784.184021,911.922363 784.824341,913.033630 
	C788.079041,918.682617 787.057007,920.977417 780.724121,921.364441 
	C773.794312,921.787903 766.832825,921.694275 758.965942,921.929749 
z"/>
<path fill="#A0A1A1" opacity="1.000000" stroke="none" 
	d="
M781.908630,909.441040 
	C772.510254,919.461182 761.848206,916.606018 751.207397,911.940491 
	C756.273071,911.585999 761.224121,912.157471 766.190369,912.367615 
	C772.453979,912.632690 773.968933,910.537720 772.414917,904.587646 
	C771.336426,900.457825 770.471558,896.272278 769.511230,892.111633 
	C770.505981,892.079895 771.500671,892.048218 773.664307,892.437988 
	C775.866821,894.568970 776.900574,896.278503 777.934326,897.988037 
	C779.175110,901.576782 780.415833,905.165466 781.908630,909.441040 
z"/>
<path fill="#95969B" opacity="1.000000" stroke="none" 
	d="
M583.921814,902.738037 
	C585.277100,904.463989 586.227844,906.805176 587.558960,910.301025 
	C586.604675,914.292236 585.269958,917.128845 583.807617,920.060059 
	C583.679932,920.154663 583.665527,920.529785 583.665527,920.529785 
	C583.665527,920.529785 584.034729,920.063843 584.797791,920.121704 
	C586.068542,920.230774 586.576172,920.281860 587.015503,920.959106 
	C586.670654,922.376343 586.394165,923.167297 585.569092,924.461975 
	C584.173828,928.350647 583.327087,931.735657 582.546509,935.824219 
	C582.128418,938.335510 581.644226,940.143372 580.541077,941.919312 
	C577.976379,941.259460 576.030640,940.631470 574.084839,940.003479 
	C574.925049,937.016113 575.765259,934.028687 577.500854,930.093018 
	C578.329102,926.785828 578.261963,924.427002 578.194763,922.068115 
	C579.968933,915.829773 581.743103,909.591492 583.921814,902.738037 
z"/>
<path fill="#A0A1A1" opacity="1.000000" stroke="none" 
	d="
M594.065186,807.928223 
	C591.600830,805.565796 589.136536,803.203369 585.148926,799.380737 
	C585.148926,808.305542 585.148926,815.423828 584.723083,823.195557 
	C583.195435,815.071228 582.093567,806.293335 581.883240,796.456116 
	C584.107300,792.632812 585.439819,789.868835 587.301147,787.586304 
	C589.908386,794.687866 591.986816,801.308044 594.065186,807.928223 
z"/>
<path fill="#A0A1A1" opacity="1.000000" stroke="none" 
	d="
M573.833740,940.446289 
	C576.030640,940.631470 577.976379,941.259460 580.698364,942.700806 
	C580.847717,947.715149 580.220947,951.916199 579.594238,956.117188 
	C574.431763,953.836731 576.074890,948.168152 573.519714,943.663574 
	C573.361267,942.210693 573.471924,941.549866 573.833740,940.446289 
z"/>
<path fill="#83888D" opacity="1.000000" stroke="none" 
	d="
M586.772339,787.104858 
	C585.439819,789.868835 584.107300,792.632812 581.970764,795.518066 
	C580.822021,793.478027 580.477173,791.316650 580.232422,788.491821 
	C581.144287,784.399902 581.956116,780.971558 582.948914,776.778809 
	C583.897339,779.177063 584.686829,781.173706 586.101562,784.104126 
	C586.742004,785.726868 586.757202,786.415894 586.772339,787.104858 
z"/>
<path fill="#A8A8AB" opacity="1.000000" stroke="none" 
	d="
M778.104370,897.219116 
	C776.900574,896.278503 775.866821,894.568970 774.410645,892.426392 
	C774.336670,890.302429 774.685242,888.611511 775.483154,886.441284 
	C776.713074,889.458130 777.493713,892.954163 778.104370,897.219116 
z"/>
<path fill="#A8A8AB" opacity="1.000000" stroke="none" 
	d="
M776.152893,835.552979 
	C775.625671,834.333679 775.311462,832.658630 775.366211,830.553894 
	C775.945496,831.781921 776.155701,833.439514 776.152893,835.552979 
z"/>
<path fill="#A0A1A1" opacity="1.000000" stroke="none" 
	d="
M577.916565,922.817505 
	C578.261963,924.427002 578.329102,926.785828 577.860107,929.539307 
	C577.428711,927.811646 577.533508,925.689270 577.916565,922.817505 
z"/>
<path fill="#0C4477" opacity="1.000000" stroke="none" 
	d="
M1402.813721,766.289368 
	C1402.283691,762.764648 1401.728760,759.342529 1402.745605,756.478394 
	C1409.630371,737.083679 1416.847168,717.806824 1425.002808,698.370300 
	C1435.157104,719.885193 1443.876831,741.687805 1450.509033,765.536621 
	C1434.376465,768.915100 1418.954224,767.966919 1402.813721,766.289368 
z"/>
<path fill="#0C4477" opacity="1.000000" stroke="none" 
	d="
M1273.056641,753.591736 
	C1277.742310,770.362915 1276.945557,786.683289 1275.632812,802.940918 
	C1274.985107,810.962097 1272.135376,818.499939 1266.919312,824.904236 
	C1256.069092,838.226074 1238.652832,838.516846 1228.565063,824.669983 
	C1223.979492,818.375671 1220.370239,810.797791 1218.444458,803.258911 
	C1214.623291,788.300171 1214.356567,772.832642 1218.091309,757.778748 
	C1219.814453,750.832825 1222.799072,743.769470 1226.884521,737.929810 
	C1235.269165,725.945129 1251.477051,724.767883 1261.594849,735.379028 
	C1266.271484,740.283630 1269.075928,746.973328 1273.056641,753.591736 
z"/>
<path fill="#FAFAFA" opacity="1.000000" stroke="none" 
	d="
M587.301208,787.586304 
	C586.757202,786.415894 586.742004,785.726868 586.594238,784.535278 
	C585.894348,773.810425 585.778259,763.538452 584.658691,753.377014 
	C582.766541,736.203918 580.094116,719.118408 578.018677,701.963501 
	C575.744812,683.168152 573.749512,664.338806 571.682800,645.518799 
	C570.303040,632.953857 569.067078,620.372925 567.632446,607.814514 
	C567.337891,605.236084 566.446533,602.725891 565.268677,599.671265 
	C564.617371,597.252991 564.527649,595.347717 564.603882,592.222412 
	C564.376465,588.702454 563.983154,586.402527 563.589783,584.102600 
	C563.539978,577.825928 564.853333,572.210754 572.094116,568.371338 
	C574.433716,566.729248 575.636353,565.635986 576.838989,564.542725 
	C576.838989,564.542725 577.493286,564.436096 578.422729,564.229614 
	C581.178589,562.875916 583.005005,561.728760 584.831482,560.581543 
	C594.592468,558.945374 604.353516,557.309265 614.977966,555.536499 
	C629.315186,555.497314 642.789001,555.594727 657.179993,555.450134 
	C661.256531,555.629089 664.415894,556.050110 668.781860,557.033447 
	C672.025330,558.217590 674.062134,558.839417 676.098938,559.461243 
	C683.638123,564.314087 688.591492,571.114319 691.927673,579.404114 
	C695.646301,588.644409 700.036377,597.614075 703.778503,606.845703 
	C705.185669,610.317017 705.594910,614.192810 706.459106,617.884216 
	C705.815125,618.130615 705.171143,618.376953 704.527161,618.623291 
	C703.043884,616.264771 701.857788,613.620300 699.966248,611.654663 
	C698.826782,610.470520 696.146179,609.425964 694.969482,609.995422 
	C693.769287,610.576294 692.673950,613.455688 693.074158,614.902222 
	C694.840332,621.285889 696.714539,627.711487 699.360962,633.767334 
	C710.945435,660.275818 727.309082,683.404602 748.464905,703.256531 
	C761.073059,715.087769 773.174744,727.428345 787.547729,737.232117 
	C789.679626,738.686218 791.059998,741.241882 793.440552,744.060547 
	C790.655640,745.143738 789.520508,745.832397 788.308350,746.018311 
	C776.843506,747.776306 765.309448,749.143250 753.907776,751.235229 
	C743.474915,753.149536 734.319519,757.571289 727.965210,768.197021 
	C726.007202,769.471680 724.940491,769.979187 723.488647,769.892578 
	C716.346375,763.761414 716.484802,755.493896 714.964478,747.234192 
	C715.184082,744.306824 715.108826,742.145203 715.288330,739.294678 
	C715.807556,736.670288 716.072083,734.734802 716.884460,732.365845 
	C720.739258,727.995483 720.348694,724.446594 716.222656,720.585083 
	C705.173767,700.106445 694.230591,680.315063 683.253235,660.542603 
	C678.892883,652.688660 674.555298,644.818909 670.005249,637.075134 
	C668.248657,634.085693 666.725342,630.062500 661.178467,632.387512 
	C661.000671,634.049011 660.645996,635.936218 660.628967,637.826538 
	C660.595703,641.521118 658.613037,643.551758 655.176392,643.642639 
	C648.539917,643.818176 641.822510,644.147339 635.283997,643.296387 
	C632.526550,642.937500 628.639343,640.142090 628.011230,637.737244 
	C627.410278,635.436279 629.618286,631.033630 631.889404,629.574341 
	C645.840271,620.610474 659.646667,611.077454 676.918823,609.418396 
	C678.884644,609.229614 681.034363,608.969421 682.680176,608.017944 
	C684.190674,607.144897 685.135498,605.293091 686.329590,603.872559 
	C684.668579,602.563171 683.130920,600.392822 681.319580,600.133423 
	C678.099976,599.672302 674.651978,600.032898 671.408752,600.636475 
	C651.449036,604.350830 634.760498,614.071655 620.830444,628.692749 
	C612.934875,636.980103 613.728516,642.670776 623.601135,648.428223 
	C633.935486,654.454834 645.045959,655.114502 656.484619,652.827209 
	C667.347107,650.655212 667.263000,650.623413 672.841370,660.408630 
	C678.106079,669.643555 683.538879,678.782654 688.881104,688.535278 
	C689.849121,690.215332 690.833923,691.324097 692.008972,693.084229 
	C697.053711,702.480042 701.908142,711.224426 706.769653,720.545776 
	C707.785400,722.239563 708.794067,723.356445 709.790161,725.185425 
	C709.711914,728.266113 709.646301,730.634766 709.027100,733.419067 
	C707.961182,735.892334 707.448792,737.949829 706.703552,740.786499 
	C706.582214,743.706177 706.693726,745.846741 706.633484,748.729858 
	C707.512268,752.632935 708.562805,755.793274 709.536133,759.671387 
	C711.029419,769.197388 716.725647,775.080933 723.501770,780.199036 
	C726.544556,782.708069 729.587341,785.217102 733.569580,788.509888 
	C737.054626,789.858826 739.600220,790.424194 742.145813,790.989502 
	C746.071838,791.352234 750.133362,792.531006 753.895447,791.906372 
	C761.553467,790.634949 765.806946,793.943604 768.273071,801.789429 
	C765.082703,803.645630 762.072876,804.646729 759.020081,804.802124 
	C752.835815,805.117004 746.569275,804.464417 740.448059,805.173035 
	C735.116516,805.790344 734.507812,808.980652 738.319763,813.149658 
	C748.268738,813.446594 758.217651,813.743469 769.368713,814.368652 
	C770.992249,815.188232 771.506592,815.546082 772.113831,815.770508 
	C772.092896,816.149170 772.072021,816.527771 771.613159,817.913879 
	C770.584778,821.342285 769.994324,823.763184 769.403809,826.184021 
	C768.673523,832.548401 767.943237,838.912720 766.707153,846.614136 
	C765.825073,851.349548 765.448730,854.747803 765.072388,858.146118 
	C764.910217,861.505737 764.747986,864.865356 764.579163,869.688599 
	C765.472900,873.125000 766.373230,875.097839 767.273560,877.070618 
	C767.817749,881.619568 768.362000,886.168518 769.208740,891.414551 
	C770.471558,896.272278 771.336426,900.457825 772.414917,904.587646 
	C773.968933,910.537720 772.453979,912.632690 766.190369,912.367615 
	C761.224121,912.157471 756.273071,911.585999 750.631104,911.428345 
	C749.251831,911.563782 748.556824,911.445923 746.844604,910.871338 
	C744.631348,909.856384 743.489258,909.055542 742.231323,908.775574 
	C716.164307,902.973816 691.869385,892.466736 667.928345,880.981934 
	C661.948547,878.113342 655.855347,875.472778 649.751953,872.873840 
	C646.916138,871.666321 644.047058,872.301331 643.372986,875.428223 
	C643.014526,877.090698 644.305237,879.636414 645.647583,880.999451 
	C647.204529,882.580261 649.572449,883.443909 651.696167,884.371948 
	C666.890381,891.011292 681.861206,898.270081 697.398193,903.985962 
	C711.958679,909.342712 727.127808,913.045166 742.029114,917.475525 
	C743.325134,917.813416 744.621155,918.151367 746.595032,918.491272 
	C747.901184,920.687256 749.420654,923.067383 749.007690,925.043884 
	C746.914062,935.065125 744.318909,944.981506 741.612427,956.115845 
	C687.910950,956.115845 634.725708,956.115845 580.567383,956.116516 
	C580.220947,951.916199 580.847717,947.715149 581.317261,942.732666 
	C581.644226,940.143372 582.128418,938.335510 583.069946,935.418701 
	C584.390747,930.859192 585.254211,927.408752 586.117676,923.958313 
	C586.394165,923.167297 586.670654,922.376343 587.487000,920.630127 
	C588.756165,916.446594 589.485535,913.218323 590.214905,909.989990 
	C590.388306,909.324829 590.561646,908.659729 591.210144,907.024170 
	C592.635498,902.630371 593.585693,899.206970 594.535767,895.783630 
	C594.801941,894.916199 595.068115,894.048767 595.895386,891.978760 
	C602.315674,877.872314 600.280090,865.280945 594.954285,852.819763 
	C594.912842,848.460693 594.871338,844.101685 594.998108,838.207642 
	C595.224670,834.408325 595.372742,832.142029 595.325806,829.879822 
	C595.133545,820.616699 595.111572,820.617126 604.729858,818.438232 
	C606.199463,818.474854 607.041870,818.409729 608.453247,818.630005 
	C619.953613,817.204712 627.698486,809.334473 627.675781,798.034607 
	C627.655884,788.103394 626.300598,778.132202 624.962463,768.256226 
	C622.908142,753.094299 620.212646,738.020264 618.059998,722.870422 
	C614.550781,698.173157 611.260071,673.444885 607.876770,648.729736 
	C607.741211,647.739563 607.944946,646.456604 607.397949,645.816040 
	C605.832642,643.982727 604.146912,641.310608 602.170410,640.978149 
	C598.701294,640.394592 597.985229,643.578186 598.196167,646.424988 
	C598.736206,653.713013 599.118835,661.034851 600.148865,668.259888 
	C602.493958,684.709412 605.224243,701.103699 607.733093,717.530334 
	C610.289673,734.269409 612.878479,751.004944 615.237915,767.772217 
	C616.535095,776.990784 617.739075,786.248779 618.348633,795.530762 
	C619.020081,805.754639 611.818176,811.757385 601.782837,809.896790 
	C599.174011,809.413025 596.627502,808.592957 594.052368,807.927307 
	C594.052368,807.927307 594.014526,807.961243 594.039856,807.944702 
	C591.986816,801.308044 589.908386,794.687866 587.301208,787.586304 
z"/>
<path fill="#A0A1A1" opacity="1.000000" stroke="none" 
	d="
M709.580688,733.003357 
	C709.646301,730.634766 709.711914,728.266113 709.755981,724.582153 
	C708.743713,722.167480 707.753113,721.068176 706.762512,719.968811 
	C701.908142,711.224426 697.053711,702.480042 691.974976,692.494324 
	C690.799744,690.156616 689.848755,689.060303 688.897827,687.963928 
	C683.538879,678.782654 678.106079,669.643555 672.841370,660.408630 
	C667.263000,650.623413 667.347107,650.655212 656.484619,652.827209 
	C645.045959,655.114502 633.935486,654.454834 623.601135,648.428223 
	C613.728516,642.670776 612.934875,636.980103 620.830444,628.692749 
	C634.760498,614.071655 651.449036,604.350830 671.408752,600.636475 
	C674.651978,600.032898 678.099976,599.672302 681.319580,600.133423 
	C683.130920,600.392822 684.668579,602.563171 686.329590,603.872559 
	C685.135498,605.293091 684.190674,607.144897 682.680176,608.017944 
	C681.034363,608.969421 678.884644,609.229614 676.918823,609.418396 
	C659.646667,611.077454 645.840271,620.610474 631.889404,629.574341 
	C629.618286,631.033630 627.410278,635.436279 628.011230,637.737244 
	C628.639343,640.142090 632.526550,642.937500 635.283997,643.296387 
	C641.822510,644.147339 648.539917,643.818176 655.176392,643.642639 
	C658.613037,643.551758 660.595703,641.521118 660.628967,637.826538 
	C660.645996,635.936218 661.000671,634.049011 661.178467,632.387512 
	C666.725342,630.062500 668.248657,634.085693 670.005249,637.075134 
	C674.555298,644.818909 678.892883,652.688660 683.253235,660.542603 
	C694.230591,680.315063 705.173767,700.106445 716.139465,721.545593 
	C716.211060,726.400391 716.273804,729.599854 716.336548,732.799377 
	C716.072083,734.734802 715.807556,736.670288 714.784790,739.556274 
	C711.236694,743.262390 711.501465,745.755798 714.669556,748.000000 
	C716.484802,755.493896 716.346375,763.761414 723.615601,770.466736 
	C724.752625,773.086975 725.377563,774.538818 726.002563,775.990723 
	C725.498901,777.128662 724.995239,778.266663 723.996704,779.801819 
	C716.725647,775.080933 711.029419,769.197388 709.634766,758.844849 
	C709.779114,753.883057 711.024780,750.053406 706.805298,747.987244 
	C706.693726,745.846741 706.582214,743.706177 707.274109,740.466064 
	C708.578613,737.245361 709.079651,735.124390 709.580688,733.003357 
z"/>
<path fill="#FAFAFA" opacity="1.000000" stroke="none" 
	d="
M777.771423,769.763428 
	C775.271912,772.024048 773.093628,773.612915 771.338989,775.579651 
	C762.118164,785.915466 750.642029,784.326477 739.039124,781.744995 
	C734.492065,780.733398 733.038330,777.152649 734.902771,773.369141 
	C736.577454,769.970764 739.071472,766.232483 742.224609,764.475220 
	C747.340271,761.624084 753.150146,759.496277 758.918335,758.452759 
	C769.266846,756.580688 779.801941,755.740112 791.079651,754.368652 
	C789.715332,762.799194 782.510925,764.755798 777.771423,769.763428 
z"/>
<path fill="#A8A8AB" opacity="1.000000" stroke="none" 
	d="
M738.659790,812.517578 
	C734.507812,808.980652 735.116516,805.790344 740.448059,805.173035 
	C746.569275,804.464417 752.835815,805.117004 759.020081,804.802124 
	C762.072876,804.646729 765.082703,803.645630 768.660278,802.466492 
	C772.239746,807.737671 771.911682,809.354553 766.898743,809.725281 
	C760.708191,810.183228 754.453308,809.712219 748.246948,810.037903 
	C745.140808,810.200928 742.080688,811.241760 738.659790,812.517578 
z"/>
<path fill="#A8A8AB" opacity="1.000000" stroke="none" 
	d="
M765.665283,857.753906 
	C765.448730,854.747803 765.825073,851.349548 766.776978,847.468750 
	C766.987793,850.444702 766.622986,853.903137 765.665283,857.753906 
z"/>
<path fill="#A8A8AB" opacity="1.000000" stroke="none" 
	d="
M741.823608,790.421509 
	C739.600220,790.424194 737.054626,789.858826 734.197083,788.688538 
	C736.423889,788.673523 738.962585,789.263489 741.823608,790.421509 
z"/>
<path fill="#A8A8AB" opacity="1.000000" stroke="none" 
	d="
M769.874268,825.915405 
	C769.994324,823.763184 770.584778,821.342285 771.660889,818.480591 
	C774.592224,821.297058 772.250793,823.420349 769.874268,825.915405 
z"/>
<path fill="#A8A8AB" opacity="1.000000" stroke="none" 
	d="
M675.828857,558.825928 
	C674.062134,558.839417 672.025330,558.217590 669.575745,557.063599 
	C671.294922,557.084473 673.426880,557.637573 675.828857,558.825928 
z"/>
<path fill="#A8A8AB" opacity="1.000000" stroke="none" 
	d="
M767.441040,876.369629 
	C766.373230,875.097839 765.472900,873.125000 764.817017,870.503052 
	C765.910400,871.792114 766.759460,873.730347 767.441040,876.369629 
z"/>
<path fill="#A8A8AB" opacity="1.000000" stroke="none" 
	d="
M726.450562,775.503784 
	C725.377563,774.538818 724.752625,773.086975 724.000732,771.060913 
	C724.940491,769.979187 726.007202,769.471680 727.643188,768.810303 
	C727.774414,770.776611 727.336487,772.896729 726.450562,775.503784 
z"/>
<path fill="#A8A8AB" opacity="1.000000" stroke="none" 
	d="
M772.107910,815.382141 
	C771.506592,815.546082 770.992249,815.188232 770.302429,814.306274 
	C770.723328,814.275024 771.412659,814.634399 772.107910,815.382141 
z"/>
<path fill="#A0A1A1" opacity="1.000000" stroke="none" 
	d="
M604.102539,818.336487 
	C595.111572,820.617126 595.133545,820.616699 595.325806,829.879822 
	C595.372742,832.142029 595.224670,834.408325 594.833130,837.391846 
	C593.054077,831.771973 591.302612,825.477295 590.374207,819.063354 
	C590.138062,817.432007 592.711548,815.513184 593.624817,813.554199 
	C594.229614,812.256958 594.176575,810.653015 594.235229,808.556824 
	C596.627502,808.592957 599.174011,809.413025 601.782837,809.896790 
	C611.818176,811.757385 619.020081,805.754639 618.348633,795.530762 
	C617.739075,786.248779 616.535095,776.990784 615.237915,767.772217 
	C612.878479,751.004944 610.289673,734.269409 607.733093,717.530334 
	C605.224243,701.103699 602.493958,684.709412 600.148865,668.259888 
	C599.118835,661.034851 598.736206,653.713013 598.196167,646.424988 
	C597.985229,643.578186 598.701294,640.394592 602.170410,640.978149 
	C604.146912,641.310608 605.832642,643.982727 607.397949,645.816040 
	C607.944946,646.456604 607.741211,647.739563 607.876770,648.729736 
	C611.260071,673.444885 614.550781,698.173157 618.059998,722.870422 
	C620.212646,738.020264 622.908142,753.094299 624.962463,768.256226 
	C626.300598,778.132202 627.655884,788.103394 627.675781,798.034607 
	C627.698486,809.334473 619.953613,817.204712 608.735229,818.185303 
	C608.864014,816.615112 609.279846,815.774902 609.695679,814.934692 
	C608.164917,814.733887 606.437073,814.029907 605.178101,814.522949 
	C604.435608,814.813721 604.436157,817.001709 604.102539,818.336487 
z"/>
<path fill="#A0A1A1" opacity="1.000000" stroke="none" 
	d="
M594.710693,853.761108 
	C600.280090,865.280945 602.315674,877.872314 595.897705,891.294556 
	C595.450012,884.340637 595.732605,876.865540 595.611328,869.396973 
	C595.531738,864.493958 594.868774,859.600342 594.710693,853.761108 
z"/>
<path fill="#A0A1A1" opacity="1.000000" stroke="none" 
	d="
M589.672729,909.991821 
	C589.485535,913.218323 588.756165,916.446594 587.555298,920.003906 
	C586.576172,920.281860 586.068542,920.230774 584.776855,920.093140 
	C583.992859,920.006714 583.935303,919.965454 583.935303,919.965454 
	C585.269958,917.128845 586.604675,914.292236 587.994873,910.772461 
	C588.410461,910.057434 588.770508,910.025574 589.672729,909.991821 
z"/>
<path fill="#A0A1A1" opacity="1.000000" stroke="none" 
	d="
M594.019409,896.156616 
	C593.585693,899.206970 592.635498,902.630371 591.163086,906.507812 
	C591.594910,903.484558 592.549011,900.007080 594.019409,896.156616 
z"/>
<path fill="#A0A1A1" opacity="1.000000" stroke="none" 
	d="
M563.200317,584.605347 
	C563.983154,586.402527 564.376465,588.702454 564.443604,591.518738 
	C563.681885,589.726135 563.246399,587.417114 563.200317,584.605347 
z"/>
<path fill="#A0A1A1" opacity="1.000000" stroke="none" 
	d="
M584.088257,560.422668 
	C583.005005,561.728760 581.178589,562.875916 578.685730,564.027893 
	C578.540283,561.003967 580.484375,559.986389 584.088257,560.422668 
z"/>
<path fill="#A0A1A1" opacity="1.000000" stroke="none" 
	d="
M576.153137,564.494751 
	C575.636353,565.635986 574.433716,566.729248 572.617004,567.905762 
	C573.157776,566.808350 574.312561,565.627563 576.153137,564.494751 
z"/>
<path fill="#A0A1A1" opacity="1.000000" stroke="none" 
	d="
M741.798096,916.906372 
	C727.127808,913.045166 711.958679,909.342712 697.398193,903.985962 
	C681.861206,898.270081 666.890381,891.011292 651.696167,884.371948 
	C649.572449,883.443909 647.204529,882.580261 645.647583,880.999451 
	C644.305237,879.636414 643.014526,877.090698 643.372986,875.428223 
	C644.047058,872.301331 646.916138,871.666321 649.751953,872.873840 
	C655.855347,875.472778 661.948547,878.113342 667.928345,880.981934 
	C691.869385,892.466736 716.164307,902.973816 742.231323,908.775574 
	C743.489258,909.055542 744.631348,909.856384 746.317871,910.939819 
	C744.757324,912.762085 739.758606,910.888123 741.798096,916.906372 
z"/>
<path fill="#A0A1A1" opacity="1.000000" stroke="none" 
	d="
M585.569092,924.461975 
	C585.254211,927.408752 584.390747,930.859192 583.003784,934.715149 
	C583.327087,931.735657 584.173828,928.350647 585.569092,924.461975 
z"/>
<path fill="#A0A1A1" opacity="1.000000" stroke="none" 
	d="
M584.013794,920.035278 
	C584.034729,920.063843 583.665527,920.529785 583.665527,920.529785 
	C583.665527,920.529785 583.679932,920.154663 583.807617,920.060059 
	C583.935303,919.965454 583.992859,920.006714 584.013794,920.035278 
z"/>
<path fill="#A8A8AB" opacity="1.000000" stroke="none" 
	d="
M706.633484,748.729858 
	C711.024780,750.053406 709.779114,753.883057 709.711975,758.127136 
	C708.562805,755.793274 707.512268,752.632935 706.633484,748.729858 
z"/>
<path fill="#A8A8AB" opacity="1.000000" stroke="none" 
	d="
M716.884399,732.365845 
	C716.273804,729.599854 716.211060,726.400391 716.231567,722.240356 
	C720.348694,724.446594 720.739258,727.995483 716.884399,732.365845 
z"/>
<path fill="#A8A8AB" opacity="1.000000" stroke="none" 
	d="
M714.964478,747.234192 
	C711.501465,745.755798 711.236694,743.262390 714.530029,740.245239 
	C715.108826,742.145203 715.184082,744.306824 714.964478,747.234192 
z"/>
<path fill="#83888D" opacity="1.000000" stroke="none" 
	d="
M604.729858,818.438232 
	C604.436157,817.001709 604.435608,814.813721 605.178101,814.522949 
	C606.437073,814.029907 608.164917,814.733887 609.695679,814.934692 
	C609.279846,815.774902 608.864014,816.615112 608.166199,817.899963 
	C607.041870,818.409729 606.199463,818.474854 604.729858,818.438232 
z"/>
<path fill="#A8A8AB" opacity="1.000000" stroke="none" 
	d="
M709.027100,733.419067 
	C709.079651,735.124390 708.578613,737.245361 707.507019,739.686890 
	C707.448792,737.949829 707.961182,735.892334 709.027100,733.419067 
z"/>
<path fill="#A8A8AB" opacity="1.000000" stroke="none" 
	d="
M688.881104,688.535278 
	C689.848755,689.060303 690.799744,690.156616 691.784668,691.842896 
	C690.833923,691.324097 689.849121,690.215332 688.881104,688.535278 
z"/>
<path fill="#A8A8AB" opacity="1.000000" stroke="none" 
	d="
M706.769653,720.545776 
	C707.753113,721.068176 708.743713,722.167480 709.768555,723.869995 
	C708.794067,723.356445 707.785400,722.239563 706.769653,720.545776 
z"/>
</svg>